<?xml version="1.0" encoding="utf-8"?>
<svg xmlns="http://www.w3.org/2000/svg" xmlns:xlink="http://www.w3.org/1999/xlink" version= "1.1" width="1713px" height="1225px" viewBox="-317 438 1713 1225">
<g id="layer1">
<g style="fill:rgb(255,255,255); fill-opacity:1.0; stroke-linejoin: miter">
<path d="M-317.001,435.49734C-317.6645,435.49734,-318.30078,435.76093,-318.76993,436.23007C-319.23907,436.69922,-319.50266,437.3355,-319.50266,437.999L-319.50165,1663.0C-319.50165,1664.3818,-318.3816,1665.5017,-317.0,1665.5017L1396.001,1665.5027C1396.6644,1665.5027,1397.3007,1665.2394,1397.77,1664.77C1397.7917,1664.7483,1397.8328,1664.705,1397.8486,1664.6876L1397.8506,1664.6854C1398.2251,1664.2743,1398.4508,1663.7511,1398.4948,1663.1993L1398.495,1663.1975C1398.5,1663.1329,1398.5027,1663.0682,1398.5027,1663.001L1398.5017,438.0C1398.5017,436.6185,1397.3815,435.49835,1396.0,435.49835L-317.001,435.49734 Z"/>
</g>
</g>
<g id="layer2">
<g style="fill:rgb(0,0,0); fill-opacity:1.0; stroke-linejoin: miter">
<path d="M1019.5239,943.0215C1013.01044,944.9085,1004.28455,952.9518,1001.8861,959.2951C999.4885,965.8251,999.89954,976.0696,1002.90137,981.6478C1004.40125,984.43567,1034.6969,1015.43494,1070.2252,1050.6993L1134.9222,1114.7313L1070.149,1180.1765C1034.5135,1216.0768,1004.4489,1247.4877,1003.33966,1249.7274C1000.7512,1254.9539,1000.79333,1266.1321,1003.4205,1271.3374C1010.73895,1285.469,1024.7336,1291.5646,1037.5702,1286.6738C1048.918,1282.3461,1199.2533,1130.3274,1201.0829,1121.3776C1204.3776,1105.5306,1205.6881,1107.3893,1120.9808,1022.938C1034.4054,937.0051,1035.9003,938.11694,1019.5239,943.0215 Z"/>
</g>
<g style="fill:rgb(0,0,0); fill-opacity:1.0; stroke-linejoin: miter">
<path d="M867.72687,902.22845C864.1932,904.10376,859.7378,908.22015,857.88586,911.20764C855.85046,914.7552,839.37524,993.24646,815.22943,1112.9393L775.71936,1309.0731L778.91785,1317.4436C782.8695,1328.0479,790.7139,1333.4207,803.0136,1334.4934C814.3811,1335.3826,823.6758,1330.1316,828.85425,1319.8662C830.51807,1316.3203,844.7996,1249.5721,860.5317,1171.6409C876.0768,1093.7109,893.26874,1007.7637,898.7585,980.9174C904.24603,953.88336,908.81067,928.71643,908.7965,924.99C908.72217,905.05695,885.761,892.47327,867.72687,902.22845 Z"/>
</g>
<g style="fill:rgb(0,0,0); fill-opacity:1.0; stroke-linejoin: miter">
<path d="M406.91803,699.25604C403.3049,701.0043,400.75082,703.6532,399.631,706.7488C398.81033,709.0897,397.90225,708.2635,396.52872,703.8949C395.23166,699.8274,395.1559,699.7527,393.7278,701.0398C392.07443,702.55383,391.86307,706.5514,393.1591,710.3171C393.6166,711.6729,393.84726,712.8785,393.6973,713.10535C393.4717,713.2571,391.81015,712.5846,389.9965,711.53564C388.18298,710.5621,385.69116,709.6664,384.56,709.67053C382.75024,709.67737,382.52478,709.90436,382.9065,711.1848C383.2884,712.4654,382.91248,712.76843,380.2746,713.1553C375.07443,714.00433,368.30948,719.91144,370.27744,721.86487C370.88297,722.4656,371.25998,722.46423,371.55936,721.86017C371.85947,721.4067,373.06454,721.0251,374.34653,721.0203L376.5333,721.0121L373.37903,724.49255C371.5762,726.3847,368.57193,729.6384,366.61893,731.6816C363.68924,734.709,363.01492,735.9183,363.02304,738.105C363.02847,739.53754,362.3602,742.33044,361.53793,744.2943C358.69836,751.3178,357.58652,756.5253,358.57385,758.40674C359.56104,760.2131,359.34875,763.98444,357.86755,771.22925C357.20215,774.7759,357.13458,776.88794,357.90305,780.7306C358.67355,785.17706,358.60184,786.15765,357.25998,790.31024C355.32077,796.12384,355.05856,806.6825,356.87082,807.35443C358.60782,808.02673,358.24448,811.723,355.8513,817.0863C353.60776,822.147,352.48178,823.50854,351.64728,822.1543C351.34393,821.7029,349.4522,819.9757,347.33466,818.32446C345.21722,816.7486,341.4347,813.5198,338.86267,811.3428C328.42184,802.1816,325.0189,799.6302,320.33524,797.3853C316.02905,795.2898,314.82135,794.9927,310.5241,795.31055C304.34167,795.63477,297.49133,798.8276,291.62817,803.90186C284.6376,809.9608,284.03915,811.2452,284.29126,818.25726L284.54013,824.28906L268.49777,829.703C259.68628,832.7522,252.00485,835.57056,251.40352,836.10077C249.97523,837.3126,249.998,843.4209,251.37581,848.9207C252.90503,854.5707,256.18967,865.87,257.63852,870.16284C258.7059,873.32635,258.70853,874.0049,257.66635,877.6284C255.72946,884.04553,256.12228,888.2672,258.69662,891.0476C259.90793,892.3251,261.9492,893.75037,263.23276,894.198C265.49792,894.9436,266.33362,896.5996,264.9038,897.43445C263.6249,898.2687,257.12326,914.1288,255.03976,921.60236C249.75432,940.0972,247.70573,956.9968,247.72636,982.7869L247.79643,1001.63934L246.34966,997.8741C245.58766,995.7653,243.30034,988.9872,241.392,982.8106C228.87495,942.58826,213.95958,906.2962,206.76682,898.5558C203.20822,894.723,197.61938,892.4061,193.92741,893.2494C190.6873,893.94006,187.30539,897.0446,186.48709,900.064C185.59425,903.3098,186.28476,906.4746,191.32365,923.1215C201.17328,955.81256,208.12541,979.9932,210.80537,990.8425C211.7234,994.38336,212.94759,999.12946,213.55934,1001.38947C215.31833,1008.01904,218.45615,1020.3745,219.76059,1026.4026C220.45041,1029.4164,221.44766,1033.9375,222.06015,1036.4236C222.67276,1038.9099,223.59335,1043.1295,224.20674,1045.8418C224.82008,1048.5542,225.97145,1053.9794,226.89082,1057.8972C232.8729,1084.7965,239.07211,1129.4918,241.99883,1166.2057C242.79088,1176.3832,243.25475,1179.4731,244.2393,1180.6006C245.14787,1181.5776,245.5313,1183.3107,245.5432,1186.4777C245.5836,1197.3368,252.04071,1210.0569,261.1162,1217.1117C266.56137,1221.3147,275.2494,1225.5807,279.85162,1226.1669C282.79425,1226.6084,283.399,1226.9833,283.1009,1227.9646C281.61212,1233.1735,274.17062,1259.8962,273.72482,1261.7075C273.42758,1262.9152,270.8965,1271.7478,268.14212,1281.3352C265.3873,1290.8468,263.00595,1299.3771,262.78275,1300.2076C262.5596,1301.0378,259.88022,1310.5494,256.82858,1321.3445C253.7015,1332.1399,250.94797,1341.9534,250.65102,1343.2367C249.98131,1345.6521,249.3109,1347.9167,245.06676,1362.4867C243.57793,1367.6957,241.6425,1374.4897,240.82445,1377.5846C239.41222,1383.0947,237.10434,1391.097,227.12897,1425.8981C221.02367,1446.9602,220.72697,1448.3186,221.26451,1450.8806L221.72447,1452.9152L216.2213,1453.3881C213.2057,1453.6254,202.72522,1454.0416,192.99838,1454.3037C163.81757,1455.0912,128.68134,1456.4283,128.23029,1456.807C128.08032,1457.0338,289.38113,1456.5848,486.7269,1455.8503C684.0727,1455.1162,845.37244,1454.3651,845.2212,1454.2151C844.7669,1453.7643,788.5793,1451.8619,763.46594,1451.4272C752.30457,1451.2424,742.0477,1450.9036,740.68945,1450.6825L738.35016,1450.3142L738.71277,1446.3915C739.0013,1442.8461,738.84796,1442.1682,736.72577,1439.3105C733.16327,1434.422,730.06696,1433.2268,711.72925,1429.751C695.6555,1426.7189,682.35944,1420.2831,664.2865,1406.8522C650.52405,1396.7229,648.2543,1394.6953,647.5665,1392.2848C647.03064,1390.1752,646.8041,1390.0253,643.2599,1390.0385C639.71545,1390.0516,639.56433,1389.9767,638.65,1387.4164C636.8203,1382.0688,636.7451,1382.0692,645.1925,1382.5656C650.24646,1382.9238,652.7347,1382.8392,652.7327,1382.3113C652.7287,1381.2554,656.9296,1355.0726,657.8915,1350.0167C659.1494,1343.6022,662.32764,1326.321,663.4363,1320.2842C664.54407,1313.9457,674.9093,1262.3264,676.61487,1254.5529C682.2506,1228.8925,686.855,1209.7968,693.0282,1186.6982C698.16003,1167.5249,699.704,1156.8862,699.0569,1145.1246C698.4856,1133.438,697.3329,1127.6361,694.3683,1121.3124C691.4791,1114.9888,685.4987,1108.752,679.2276,1105.5327C676.96075,1104.3347,675.0712,1103.1353,675.0704,1102.9089C675.06775,1102.2301,696.7073,1101.3958,716.3892,1101.3225C732.5268,1101.2625,734.1855,1101.1056,736.8952,1099.738C739.6801,1098.2948,743.6583,1093.3785,743.6511,1091.4178C743.64746,1090.4375,746.2622,1083.7916,753.73596,1065.741C763.30334,1042.9314,770.92554,1024.2013,775.7822,1012.11755C783.77716,992.2551,787.738,982.5124,789.90546,977.37634C791.102,974.6574,793.4936,968.9171,795.21185,964.5371C798.49994,956.45605,807.9922,933.6466,814.719,917.4841C816.8119,912.57465,818.37805,907.81793,818.22375,906.9136C818.0685,905.70764,816.02673,904.2071,810.662,901.28595C801.9722,896.5677,798.8022,895.82526,796.7746,898.0949C795.9482,898.9275,791.53424,908.37054,786.97406,919.0955C775.91003,945.0777,767.6106,964.18713,765.4407,968.79535C764.46826,970.91046,761.2523,978.1617,758.3371,985.035C755.4218,991.90796,752.20593,999.1593,751.2336,1001.2745C750.33624,1003.3139,746.29865,1012.5289,742.4112,1021.6681C738.4483,1030.8071,730.5971,1048.784,724.91394,1061.7002L714.51904,1085.1163L681.03827,1085.4669L647.55725,1085.7426L645.28674,1083.5641C644.00037,1082.3622,638.1797,1078.6133,632.3602,1075.166C626.54126,1071.7942,619.6628,1067.5215,617.16766,1065.7211C614.2946,1063.7711,611.6506,1062.499,610.36884,1062.5038C606.9755,1062.5165,594.06757,1059.0956,590.51666,1057.2987C587.34357,1055.7269,587.1928,1055.7277,580.7875,1056.9579C577.17053,1057.7257,570.31396,1059.2592,565.5675,1060.4082C553.5132,1063.4694,550.7239,1063.7059,539.5599,1062.8427C534.20386,1062.3345,527.41516,1061.8318,524.47314,1061.5411C520.70135,1061.2535,518.81415,1060.7327,517.8304,1059.7561C516.77045,1058.629,515.3366,1058.3328,511.4152,1058.3474C508.62503,1058.3577,502.81653,1057.8513,498.44055,1057.2645C494.06473,1056.6774,488.85928,1056.169,486.89883,1056.1763C482.29883,1056.1934,482.52094,1055.0613,487.56522,1052.8556C489.59793,1052.0184,494.11368,1049.5886,497.49994,1047.6154C507.73325,1041.62,513.67975,1038.6567,528.88745,1031.8887C530.9956,1030.9758,533.7059,1029.7594,534.91034,1029.227C536.19037,1028.6943,541.38446,1026.2618,546.5793,1023.9049C551.77386,1021.54785,559.60345,1018.0498,564.121,1016.1479C571.9507,1012.7251,572.1764,1012.5735,572.1681,1010.3112C572.16296,1008.95404,571.6239,1005.9394,571.01184,1003.604C570.39966,1001.1932,569.8634,998.9329,569.8622,998.6313C569.8607,998.25433,571.3662,997.49457,573.2495,996.9598C577.31714,995.73785,577.3164,995.51154,574.71716,986.0952C573.6478,982.4042,572.80536,978.9385,572.8039,978.5612C572.8022,978.1088,574.9085,976.6682,577.5428,975.37634C581.9082,973.09796,582.8125,972.94354,592.7656,972.605C603.39655,972.1884,607.39075,971.4195,619.21625,967.68036L625.3174,965.77264L629.9259,968.0932C635.1391,970.7131,637.2513,970.93134,639.73346,969.1877C641.0119,968.278,641.3857,967.37177,641.2282,965.63776C640.9943,963.5274,640.1618,962.7011,635.17267,959.4769C631.9222,957.3775,629.27563,955.5021,629.2743,955.12494C629.1915,953.16455,640.96625,955.9863,644.2946,958.76404C648.07684,961.91705,653.42554,960.46436,653.4099,956.2416C653.396,952.5466,646.894,948.04614,637.83514,945.4407C635.49493,944.77057,634.5118,944.02026,634.5085,943.11523C634.50287,941.6071,635.9361,941.67706,646.5008,943.6741C651.1795,944.5615,652.6147,945.1593,655.3387,947.71326C658.97076,951.0178,659.8011,951.2408,662.2832,949.4972C663.4114,948.7388,663.9352,947.60596,663.92847,945.796C663.9177,942.93054,662.1769,941.2026,653.86115,935.653C651.1397,933.85345,649.02203,932.2022,649.09686,932.0512C649.2471,931.89984,651.58765,932.6451,654.2305,933.6158C665.4072,937.9478,669.32996,938.2349,672.18396,935.20795C674.66296,932.55927,673.7533,931.356,667.25867,928.81635C664.3135,927.6962,659.7056,925.6019,656.98553,924.1037C654.1894,922.5306,650.94244,921.33594,649.66046,921.3408C646.19147,921.3536,646.7153,920.2206,651.00543,918.0179C659.8116,913.5358,665.2977,908.4628,665.28357,904.6924C665.2689,900.77106,663.76013,900.5504,657.2872,903.8173C653.9753,905.48883,650.51227,907.08527,649.4578,907.39075C648.40314,907.69617,647.27386,908.22833,646.8228,908.53174C646.4466,908.83466,643.7357,909.90063,640.79834,910.8164C637.936,911.7319,634.5466,912.8003,633.2662,913.25745C632.0612,913.63904,626.7849,914.3374,621.5831,914.7339C616.4566,915.1299,610.95435,915.82904,609.4479,916.28723C607.5647,916.89734,603.1293,920.5336,595.01434,928.40643C581.26294,941.50354,575.77203,945.29443,565.6802,948.8008L558.22406,951.3926L556.8597,949.51215L555.4202,947.7079L550.2989,949.4613C547.51227,950.452,542.99457,952.2787,540.28455,953.57086C537.5742,954.7874,533.43396,956.6882,531.0245,957.6772C528.6905,958.6662,524.7762,960.5661,522.36804,961.9325C515.1437,965.95605,513.0355,966.86896,506.0302,969.0064C496.16272,971.984,486.2966,975.41425,481.70422,977.4671C479.37054,978.5316,475.3772,979.4515,471.90967,979.7661C464.44626,980.3972,456.68652,982.3867,450.73932,985.1237L445.9209,987.25305L444.4814,985.4484C443.72397,984.5464,440.77036,981.16394,437.96872,978.08264C435.24277,975.07635,432.51605,971.91907,431.98553,971.1671C431.45477,970.41486,429.48834,968.8387,427.59888,967.71454C425.70905,966.515,424.04395,964.86206,423.81464,964.0334C422.19977,955.5937,420.59845,950.8487,417.2559,944.3005C413.61002,937.22546,413.38052,936.32166,413.7446,932.8512C414.3287,927.7212,418.8925,917.9763,422.42297,914.268C424.00037,912.6031,425.72687,910.48517,426.17566,909.5032C426.9245,908.0676,427.4519,907.91504,430.01727,908.28253C433.78992,908.87177,435.97168,907.5063,434.2303,905.62756C433.69983,904.9507,432.56226,903.22064,431.8783,901.79047C430.055,898.1774,427.17737,894.94543,424.38077,893.2214C421.2823,891.42303,420.90265,890.7459,420.88898,887.0508C420.8825,885.31635,420.4235,883.5836,419.96964,883.2082C418.23056,881.93274,412.79666,880.74634,408.6492,880.76196L404.4262,880.7777L401.61584,875.35864L398.73035,870.0151L400.15356,867.446C401.57593,864.6504,404.88385,861.92316,406.69373,861.9165C407.29694,861.91437,410.0937,863.63837,412.9666,865.66376C420.7551,871.36584,428.38452,874.8818,433.66467,875.2394C442.79184,875.884,446.25034,873.15643,448.25214,863.9488C448.54822,862.43945,449.60056,861.5308,452.38623,860.3139C456.2259,858.64044,457.35034,856.8264,456.4334,853.5873C456.12665,852.23096,456.427,851.8529,458.31067,851.4689C460.6468,851.00775,461.54633,849.5714,462.50925,844.89246C462.9545,842.9302,463.105,842.85425,468.53458,842.8338C476.3769,842.8047,477.0526,841.9727,475.88892,833.2297C473.4075,814.8388,473.77353,811.89636,478.3678,810.3711C480.62732,809.6085,480.92725,809.155,480.91882,806.89276C480.91345,805.4602,481.88306,802.591,483.08142,800.32404C485.10394,796.69684,487.63138,786.8839,487.61588,782.73663C487.6077,780.55,488.36172,780.47144,491.5361,782.4204C495.6174,784.8937,497.87634,783.98035,496.8822,780.2887C496.57565,778.9327,496.80127,778.78107,499.81793,778.8452C505.3991,779.05054,508.63327,776.77655,511.85135,770.20374C513.42346,767.1062,514.6953,764.3868,514.69385,764.0096C514.6926,763.70807,513.7117,763.4854,512.4295,763.4901C511.22305,763.4947,510.16592,763.1214,510.16446,762.7445C510.16275,762.29193,509.48306,761.99286,508.7289,761.99567C506.3158,762.0047,506.1599,760.648,508.34158,759.20685C511.72678,757.0075,513.65894,749.30835,511.6111,746.1488C511.0045,745.2464,510.85422,745.39746,510.86014,746.9811C510.86398,748.0366,510.34164,749.54706,509.74142,750.379C508.69077,751.74,508.61484,751.5895,509.05698,748.7978C509.35245,747.1376,509.64877,745.7038,509.72342,745.55255C510.2491,744.9472,505.69836,737.8758,504.71808,737.8793C504.41632,737.88043,504.04352,739.0128,503.82208,740.296L503.60516,742.7853L502.16022,739.54785C500.86676,736.461,498.7508,735.26227,498.75928,737.5247C498.7708,740.61633,493.631,737.468,485.00354,729.205C478.41943,722.8951,477.3609,722.14496,474.87234,722.15424C472.4595,722.16327,471.32565,721.4889,466.4067,716.83154C462.2442,712.85034,459.14447,710.67487,454.61224,708.6556C443.65897,703.56866,441.9231,703.1978,430.08298,703.0159C424.1251,702.8873,419.14713,702.67957,418.92038,702.52954C418.76883,702.3038,419.89737,701.6211,421.40274,700.86127C425.0159,699.11334,423.73117,698.36426,416.26343,697.7886C411.43616,697.5048,410.3056,697.66016,406.91803,699.25604 Z M641.4765,930.9484C640.4965,931.10284,638.98846,931.10834,638.08295,930.961C637.1021,930.8138,637.8555,930.6602,639.7408,930.65326C641.6259,930.6462,642.3807,930.7941,641.4765,930.9484 Z M607.56976,1080.4617C609.9891,1082.0363,613.61566,1083.9081,615.6546,1084.6547C617.6181,1085.4016,619.2044,1086.1497,619.205,1086.3003C619.2056,1086.4514,612.0423,1086.6289,603.3702,1086.6611L587.53424,1086.7198L586.7735,1084.9128C586.39276,1083.934,585.2579,1082.9579,584.1258,1082.6605C580.8799,1081.8429,582.53577,1081.0071,590.2979,1079.621C594.3673,1078.8518,598.2106,1078.1587,598.81323,1078.0056C601.82733,1077.3911,603.41254,1077.8378,607.56976,1080.4617 Z M510.71713,1093.6416C510.94962,1095.3754,511.71133,1097.4086,512.39294,1098.16C513.0742,1098.9116,513.68097,1099.8145,513.68207,1100.1158C513.68414,1100.6438,470.6988,1100.2006,470.16888,1099.6747C470.09326,1099.5995,469.8637,1098.6954,469.78424,1097.6399C469.5517,1095.9064,469.7021,1095.8302,476.33606,1095.2778C480.1053,1094.9622,488.02176,1094.4802,494.0535,1094.2318C504.45862,1093.8156,505.06122,1093.6625,506.71365,1091.8466C509.04208,1089.3495,510.17514,1089.873,510.71713,1093.6416 Z M282.08405,1157.3094C282.6895,1157.9103,283.4546,1160.8485,283.84262,1163.7878C284.69553,1170.119,285.98788,1172.9045,290.75717,1177.8636C292.801,1179.9677,295.379,1183.7285,296.5195,1186.2128C299.33212,1192.2351,305.23502,1197.8693,311.88284,1201.0116C314.75345,1202.3584,317.1717,1203.7068,317.1728,1204.0083C317.24957,1204.385,308.80447,1204.6427,298.47342,1204.681C282.93927,1204.7388,279.2434,1204.5264,276.8266,1203.5549C269.95358,1200.715,265.40735,1194.925,263.71793,1186.712C262.8737,1182.7937,262.8726,1182.4922,264.45145,1181.2041C265.35382,1180.5221,266.48267,1179.9148,266.93518,1179.9131C268.59424,1179.907,272.64886,1175.2164,273.39264,1172.4233C274.35925,1168.7247,275.8026,1151.2997,275.1939,1149.8691C274.9655,1149.2665,274.9613,1148.1355,275.25977,1147.3049C275.5573,1146.1726,276.239,1146.9995,278.28998,1150.9888C279.73322,1153.7737,281.40286,1156.6332,282.08405,1157.3094 Z M597.7268,1191.2758C597.72815,1191.6531,597.0586,1194.0686,596.1636,1196.7866C590.1277,1216.1897,587.41016,1235.731,586.3197,1266.9545C585.43713,1293.2008,584.1947,1303.8383,580.3311,1319.3871C579.366,1323.5381,578.26086,1330.4803,577.9754,1334.8549C577.54877,1341.7941,577.25226,1343.1527,575.52606,1345.4214C572.9001,1348.9755,571.33124,1352.978,570.7459,1357.7308C570.45233,1359.9191,569.7843,1362.7872,569.18604,1364.1467C567.9159,1367.3185,568.4464,1368.0708,573.43036,1369.862C576.2996,1370.8317,577.2828,1371.5822,577.28705,1372.7131C577.29803,1375.7297,574.7609,1382.9785,568.7055,1397.1027C561.37885,1414.1727,560.48627,1417.494,561.12006,1425.636C561.4389,1430.3103,561.2946,1432.0453,560.3951,1433.4814C559.4951,1434.842,559.35144,1436.8032,559.5971,1442.0059L559.92413,1448.7915L533.75714,1448.8887C519.3538,1448.9424,507.36264,1448.6852,507.13522,1448.3844C506.8315,1447.8575,505.60056,1441.2262,499.82214,1408.2935C498.51324,1401.0588,496.58667,1389.9806,495.50818,1383.8013C491.80975,1362.7001,486.6483,1333.3845,479.3271,1291.1068C472.16003,1249.7334,470.31165,1239.4089,469.31293,1234.4358C467.54675,1225.9213,466.34305,1226.6797,480.89688,1226.6255C487.8345,1226.5996,494.54462,1226.1976,495.82526,1225.8159C502.00055,1223.606,502.2599,1212.2181,496.2849,1207.4896C495.30188,1206.7391,494.46887,1205.8373,494.46777,1205.5356C494.46637,1205.1587,502.15637,1204.6774,511.65707,1204.4159C521.08264,1204.1545,531.638,1203.5875,535.1805,1203.1217C538.72296,1202.6559,546.86395,1201.7961,553.2713,1201.0936C568.1212,1199.5303,578.06744,1197.3817,587.5559,1193.8024C595.0862,1190.9087,597.723,1190.2954,597.7268,1191.2758 Z M451.87198,1228.7695C452.1028,1229.9751,452.7974,1234.2711,453.49155,1238.4158C454.18558,1242.5609,455.18863,1248.6654,455.80435,1251.9812C456.41995,1255.2969,457.42148,1261.024,458.1143,1264.7921C458.73117,1268.4851,460.27176,1277.1514,461.50375,1284.0092C462.736,1290.8672,463.8923,1297.6497,464.12393,1299.0815C464.58768,1302.0962,469.36395,1329.226,471.21167,1339.3995C471.90405,1343.0919,472.9818,1349.0453,473.523,1352.5879C474.9876,1361.179,476.68414,1371.2777,477.99347,1378.5876C484.22873,1412.7252,490.01486,1447.769,489.71512,1448.298C489.41513,1448.7517,474.33447,1449.1095,450.6561,1449.1976C405.109,1449.3672,312.5863,1450.9178,268.5513,1452.1375C251.43509,1452.6536,237.10774,1452.8577,236.80537,1452.6326C236.4278,1452.4832,236.7221,1450.5215,237.46803,1448.3318C238.21413,1446.1421,241.1921,1435.7997,244.09459,1425.458C246.99687,1415.0404,250.56995,1402.5092,252.0597,1397.5266C253.54932,1392.5438,256.15375,1383.1833,257.93973,1376.7671C259.72568,1370.3505,262.0321,1361.9711,263.14957,1358.272C264.19113,1354.4977,266.6489,1346.1934,268.43494,1339.7769C270.29626,1333.3599,272.75305,1324.8293,273.9451,1320.9038C275.06168,1316.9784,277.36893,1308.8256,279.08096,1302.7863C280.71756,1296.7474,283.91782,1285.3485,286.22626,1277.4973C288.5346,1269.5708,292.5538,1255.3787,295.2332,1245.8671C297.91257,1236.3555,300.22025,1228.2778,300.44504,1227.9C300.67,1227.5975,334.75406,1227.1692,376.15375,1227.0151L451.41196,1226.7351L451.87198,1228.7695 Z"/>
</g>
<g style="fill:rgb(0,0,0); fill-opacity:1.0; stroke-linejoin: miter">
<path d="M106.75621,943.1034C95.96505,946.86957,-53.258724,1097.2074,-56.202602,1107.0918C-60.98697,1123.1321,-62.485107,1121.088,23.344679,1206.6526C108.79828,1291.6573,108.05066,1291.1016,123.49764,1286.7598C131.12741,1284.6814,139.85686,1277.1982,142.4387,1270.2952C144.83667,1263.7665,144.42621,1253.5206,141.4237,1247.9427C139.92358,1245.1542,109.62758,1214.1548,74.100555,1178.8906L9.403052,1114.8595L74.177414,1049.4133C109.812355,1013.5118,139.87552,982.1028,140.98581,979.86273C144.31366,973.144,143.3397,961.78314,138.84404,955.093C130.22816,942.6428,119.22156,938.5854,106.75621,943.1034 Z"/>
</g>
</g>
</svg>